<?xml version="1.0" encoding="utf-8"?>
<!-- Generator: Adobe Illustrator 22.1.0, SVG Export Plug-In . SVG Version: 6.00 Build 0)  -->
<svg version="1.1" id="Layer_2" xmlns="http://www.w3.org/2000/svg" xmlns:xlink="http://www.w3.org/1999/xlink" x="0px" y="0px"
	 viewBox="0 0 1366 768" style="enable-background:new 0 0 1366 768;" xml:space="preserve">
<g>
	<polygon points="247,65.7 356.3,65.7 534.3,450 664.3,166 664.3,246 521.7,556.7 509,556.7 319,145.3 319,538 396.3,548 
		396.3,561.3 238.3,561.3 238.3,548.7 286.3,543.3 286.3,84.7 247,80 	"/>
	<rect x="736.3" y="222.7" width="35.3" height="207.3"/>
	<path d="M795.7,65.7V102c0,0,100-24.3,167.3,23.3c0,0,84.3,46.7,84.3,180.3c0,0,4.2,130.4-71.2,186.7c-1.8,1.3-3.5,2.7-5.1,4.2
		c-9.4,8.6-54.1,42.6-170.1,39.4c-0.8,0-1.7,0-2.5,0.1l-55.4,6.5v14.7h150c0,0,193.1-0.3,232.7-176.3c0.9-4.1,1.5-8.2,1.9-12.4
		c1.8-20.8,9.3-91.6-0.6-124c0,0-26.7-153.7-190-172.7L795.7,65.7z"/>
</g>
<path d="M368.4,630l8.8-1v-3.8h-8.7H364h-0.1h-4h-1l-20.5,52.9l-21.6-52.9h-4.6h-3.9h-0.1h-8.6v3.8l8.6,1.1v53.8l-8.6,1.2v3.8h8.6
	h4.8h7.8v-3.8l-7.8-1.2v-30.3l-0.5-18.1l21.9,53.4h4.7l20.8-53.4v24c0,8.3,0,16.6-0.2,24.6l-8.1,1v3.8h8h8.9h8.7v-3.8l-8.8-1
	c-0.2-8.2-0.2-16.4-0.2-24.6v-4.8C368.3,646.4,368.3,638.1,368.4,630z"/>
<g>
	<path d="M421.3,613.9c3.5-2,4.8-3.5,4.8-5.2c0-1.9-1.6-3.1-3.5-3.1c-1.6,0-3.2,1-5.9,3.6c-2.9,2.8-5.9,5.8-8.8,8.8l1.7,2.3
		C413.4,618.3,417.4,616.1,421.3,613.9z"/>
	<path d="M430.3,672l-2.1,12.2h-24.6c-0.2-8.2-0.2-16.5-0.2-25.6h14.4l1.2,9h4.3v-22.5H419l-1.3,9.1h-14.3c0-8.2,0-16.3,0.2-24.2
		h22.7l2.1,12.2h5.3l-0.7-16.9h-29.4h-4.6h-4.6h-8.7v3.8l8.8,1c0.2,8.2,0.2,16.4,0.2,24.6v4.8c0,8.3,0,16.6-0.2,24.6l-8.8,1v3.8h8.7
		h4.6h4.6H435l0.7-16.9H430.3z"/>
</g>
<polygon points="491.4,684.1 473.5,654.4 489.1,630.2 497.6,629 497.6,625.2 492.3,625.2 487,625.2 475.7,625.2 475.7,629 
	483.9,630.3 471.2,650.6 458.7,630 467.4,629 467.4,625.2 455.9,625.2 446.4,625.2 440.8,625.2 440.8,629 449.2,630 466.1,657.9 
	449.1,683.8 439.9,685.1 439.9,688.9 445.8,688.9 451.1,688.9 461.8,688.9 461.8,685.1 454.2,684 468.3,661.7 481.8,684.1 
	473,685.1 473,688.9 484.7,688.9 494.2,688.9 499.6,688.9 499.6,685.1 "/>
<path d="M522.5,630l8.8-1v-3.8h-8.7h-9.1h-8.7v3.8l8.8,1c0.2,8.2,0.2,16.4,0.2,24.6v4.8c0,8.3,0,16.6-0.2,24.6l-8.8,1v3.8h8.7h9.1
	h8.7v-3.8l-8.8-1c-0.2-8.2-0.2-16.4-0.2-24.6v-4.8C522.4,646.4,522.4,638.1,522.5,630z"/>
<path d="M583.7,672l-1.9,11c-3.9,1.9-7.9,2.6-11.5,2.6c-13.2,0-22.5-10-22.5-28.5s10.4-28.5,23.2-28.5c3,0,6.4,0.7,9.9,2.7l1.8,10.9
	h5.8l-0.4-13.8c-6.5-3.7-13.2-4.6-18.3-4.6c-18.5,0-32,14.3-32,33.3c0,19.4,12.9,33.3,32.1,33.3c6.7,0,13.2-1.3,19.2-4.6l0.4-13.8
	H583.7z"/>
<path d="M627,623.8c-14.6,0-29.1,12.4-29.1,33.3c0,21.7,14.3,33.3,29.1,33.3c14.7,0,29-12.4,29-33.3
	C655.9,635.4,641.6,623.8,627,623.8z M627,685.6c-13.4,0-19.1-14.3-19.1-28.5s5.7-28.5,19.1-28.5c13.4,0,19,14.3,19,28.5
	S640.3,685.6,627,685.6z"/>
<path d="M686.5,662h21.9v6.1h-21.9V662z"/>
<path d="M766.7,625.2h-10.2H752h-4.6h-8.7v3.8l8.8,1c0.2,8.2,0.2,16.4,0.2,24.6v3.6c0,9.3,0,17.7-0.2,25.8l-8.9,1v3.8h8.7h4.6h4.6
	h8.3c18.4,0,32.5-11.2,32.5-31.7C797.3,636.4,784.7,625.2,766.7,625.2z M764.2,684.5h-7.8c-0.2-8.4-0.2-16.9-0.2-26.2v-3.6
	c0-8.5,0-16.9,0.2-25.1h8.6c14.1,0,22.2,9.6,22.2,27.5C787.3,674.4,779.1,684.5,764.2,684.5z"/>
<path d="M821,630l8.8-1v-3.8h-8.7H812h-8.7v3.8l8.8,1c0.2,8.2,0.2,16.4,0.2,24.6v4.8c0,8.3,0,16.6-0.2,24.6l-8.8,1v3.8h8.7h9.1h8.7
	v-3.8l-8.8-1c-0.2-8.2-0.2-16.4-0.2-24.6v-4.8C820.8,646.4,820.9,638.1,821,630z"/>
<polygon points="897.3,625.2 890.7,625.2 885.5,625.2 875.4,625.2 875.4,629.5 883.8,630.3 868.3,676.3 852.1,630.3 861.2,629.5 
	861.2,625.2 850.3,625.2 841.2,625.2 835.6,625.2 835.6,629 842.9,629.9 865.1,689.5 868.9,689.5 889,630.2 897.3,629 "/>
<path d="M920.3,630l8.8-1v-3.8h-8.7h-9.1h-8.7v3.8l8.8,1c0.2,8.2,0.2,16.4,0.2,24.6v4.8c0,8.3,0,16.6-0.2,24.6l-8.8,1v3.8h8.7h9.1
	h8.7v-3.8l-8.8-1c-0.2-8.2-0.2-16.4-0.2-24.6v-4.8C920.1,646.4,920.1,638.1,920.3,630z"/>
<polygon points="999.4,625.2 991.4,625.2 986.6,625.2 976.6,625.2 976.6,629 986.6,630.3 986.6,672.9 951.9,625.2 937.7,625.2 
	937.7,629 944.5,629.9 945.3,631 945.3,683.9 937.2,685.1 937.2,688.9 945.3,688.9 950,688.9 960,688.9 960,685.1 950,683.8 
	950,637.5 988.3,689.5 991.4,689.5 991.4,679.5 991.4,630.2 999.4,629 "/>
<path d="M1063.9,657.1c0,20.8-14.3,33.3-29,33.3c-14.7,0-29.1-11.6-29.1-33.3c0-20.8,14.4-33.3,29.1-33.3
	C1049.6,623.8,1063.9,635.4,1063.9,657.1z M1035,685.6c13.4,0,19-14.3,19-28.5s-5.6-28.5-19-28.5c-13.4,0-19.1,14.3-19.1,28.5
	S1021.6,685.6,1035,685.6z"/>
</svg>
